<svg width="40" height="40" viewBox="0 0 40 40" fill="none" xmlns="http://www.w3.org/2000/svg">
<path d="M22.657 0.0495514C32.2204 0.0495514 40 7.82913 40 17.3925C40 26.956 32.2204 34.7355 22.657 34.7355C19.7335 34.7355 16.8595 34.0418 14.4315 32.7039C14.237 32.938 14.0214 33.1536 13.7873 33.3481L8.83217 38.3032C8.37463 38.8181 7.81668 39.234 7.19259 39.5254C6.5685 39.8168 5.89143 39.9776 5.20296 39.9978C4.51448 40.0181 3.82913 39.8974 3.18898 39.6432C2.54883 39.389 1.96739 39.0067 1.48035 38.5196C0.993317 38.0326 0.610962 37.4512 0.356773 36.811C0.102585 36.1709 -0.0180779 35.4855 0.00218964 34.797C0.0224533 34.1086 0.183224 33.4315 0.474628 32.8074C0.766037 32.1833 1.18193 31.6254 1.69677 31.1678L6.65191 26.2127C6.89328 25.9712 7.15897 25.7554 7.44473 25.5685C6.10684 23.1405 5.26447 20.3161 5.26447 17.343C5.26447 7.77958 13.044 0 22.6075 0L22.657 0.0495514ZM22.657 5.00469C15.7694 5.00469 10.2692 10.5049 10.2692 17.3925C10.2692 20.6629 11.4584 23.6856 13.5396 25.9154C13.5891 25.9649 13.6387 26.0145 13.6882 26.064C13.9223 26.2585 14.1379 26.4742 14.3324 26.7082C16.5126 28.6903 19.4857 29.8299 22.7066 29.8299C29.5942 29.8299 35.0944 24.3297 35.0944 17.4421C35.0944 10.5545 29.5942 5.05424 22.7066 5.05424L22.657 5.00469Z" fill="#868784"/>
</svg>
